<svg width="130" height="32" viewBox="0 0 130 32" fill="none" xmlns="http://www.w3.org/2000/svg">
<g clip-path="url(#clip0_1425_39897)">
<path d="M45.0542 8.88199H39.9507V4.96033H45.0542V8.88199ZM39.9507 10.8518H45.0542V26.5026H39.9507V10.8518Z" fill="#FA6624"/>
<path d="M47.418 4.96033H52.5215V26.4489H47.418V4.96033Z" fill="#FA6624"/>
<path d="M54.7959 4.96033H59.9173V26.4489H54.7959V4.96033Z" fill="#FA6624"/>
<path d="M77.5199 26.5026H72.5596V24.3716C72.0464 25.1603 71.3464 25.81 70.5216 26.263C69.6969 26.7159 68.7731 26.9582 67.8322 26.9681C63.3375 26.9681 62.084 24.3716 62.084 20.2888V10.8517H67.2054V19.8053C67.2054 21.8467 68.065 22.6346 69.7124 22.6346C70.8227 22.6346 72.5417 21.9362 72.5417 19.1786V10.7622H77.6453V26.413L77.5199 26.5026Z" fill="#FA6624"/>
<path d="M79.4002 10.8517H84.3605V12.9826C84.8293 12.2053 85.4874 11.5595 86.2734 11.1055C87.0594 10.6514 87.9477 10.4039 88.8552 10.3861C89.7786 10.2898 90.7093 10.4784 91.5224 10.9266C92.3355 11.3747 92.9919 12.061 93.4036 12.8931C93.9293 12.0897 94.6545 11.4363 95.5082 10.9969C96.3619 10.5575 97.315 10.3471 98.2743 10.3861C103.235 10.3861 103.79 14.1645 103.79 17.1371V26.5025H98.6683V17.2982C98.6683 15.6508 97.8983 14.6301 96.5552 14.6301C94.3527 14.6301 94.1915 16.2775 94.1915 18.8741V26.5025H89.088V17.5489C89.088 15.7582 88.5329 14.5585 87.1898 14.5585C85.3991 14.5585 84.6112 15.5791 84.6112 18.8024V26.4309H79.4898L79.3286 10.7801L79.4002 10.8517Z" fill="#FA6624"/>
<path d="M111.096 8.88199H105.974V4.96033H111.096V8.88199ZM105.974 10.8518H111.096V26.413H105.974V10.8518Z" fill="#FA6624"/>
<path d="M120.604 10.3862C122.237 10.3721 123.837 10.8424 125.202 11.7377C126.568 12.633 127.637 13.9131 128.275 15.416C128.912 16.919 129.09 18.5773 128.786 20.1813C128.481 21.7853 127.708 23.263 126.563 24.4275C125.419 25.5919 123.955 26.3909 122.356 26.7233C120.758 27.0557 119.097 26.9067 117.583 26.295C116.069 25.6834 114.771 24.6365 113.852 23.2869C112.933 21.9374 112.435 20.3456 112.421 18.713C112.353 16.5958 113.127 14.5381 114.574 12.9907C116.021 11.4434 118.022 10.5325 120.139 10.4578L120.604 10.3862ZM120.604 22.9211C122.968 22.9211 123.756 20.5753 123.756 18.6055C123.756 16.6358 122.968 14.272 120.604 14.272C118.24 14.272 117.542 16.6358 117.542 18.6055C117.542 20.5753 118.24 22.9211 120.604 22.9211Z" fill="#FA6624"/>
<path d="M24.8549 19.8231H20.6825L18.8918 18.1756V13.0542L20.4676 12.0335H24.7116C24.9206 12.0335 25.121 11.9505 25.2688 11.8027C25.4165 11.6549 25.4995 11.4545 25.4995 11.2456V7.07319C25.4996 6.97055 25.4791 6.86893 25.4393 6.77432C25.3995 6.67971 25.3411 6.59403 25.2677 6.52228C25.1943 6.45054 25.1073 6.3942 25.0118 6.35658C24.9163 6.31895 24.8142 6.3008 24.7116 6.30319H20.4497C20.3471 6.3008 20.2451 6.31895 20.1496 6.35658C20.0541 6.3942 19.9671 6.45054 19.8936 6.52228C19.8202 6.59403 19.7619 6.67971 19.7221 6.77432C19.6823 6.86893 19.6618 6.97055 19.6618 7.07319V11.0307L17.8711 12.123H12.8213L10.0636 9.616V7.44924C10.0661 7.38742 10.0558 7.32575 10.0333 7.26812C10.0108 7.21049 9.97661 7.15815 9.93286 7.1144C9.88911 7.07065 9.83678 7.03644 9.77915 7.01394C9.72152 6.99144 9.65985 6.98113 9.59803 6.98365H6.94777C6.8845 6.97851 6.82087 6.9869 6.76108 7.00823C6.7013 7.02956 6.64674 7.06336 6.60102 7.10739C6.55529 7.15142 6.51945 7.20468 6.49587 7.26361C6.4723 7.32255 6.46154 7.38582 6.46429 7.44924V10.2069C6.46154 10.2704 6.4723 10.3336 6.49587 10.3926C6.51945 10.4515 6.55529 10.5048 6.60102 10.5488C6.64674 10.5928 6.7013 10.6266 6.76108 10.6479C6.82087 10.6693 6.8845 10.6777 6.94777 10.6725H9.38314L11.9797 13.0363V18.0682L9.2936 19.7156H6.94777C6.8845 19.7105 6.82087 19.7189 6.76108 19.7402C6.7013 19.7615 6.64674 19.7953 6.60102 19.8393C6.55529 19.8834 6.51945 19.9366 6.49587 19.9956C6.4723 20.0545 6.46154 20.1178 6.46429 20.1812V23.1C6.46154 23.1635 6.4723 23.2268 6.49587 23.2857C6.51945 23.3446 6.55529 23.3979 6.60102 23.4419C6.64674 23.4859 6.7013 23.5197 6.76108 23.5411C6.82087 23.5624 6.8845 23.5708 6.94777 23.5656H9.68756C9.75083 23.5708 9.81447 23.5624 9.87425 23.5411C9.93403 23.5197 9.98861 23.4859 10.0343 23.4419C10.0801 23.3979 10.1159 23.3446 10.1395 23.2857C10.163 23.2268 10.1738 23.1635 10.1711 23.1V20.8079L12.9108 19.1605H18.0323L19.823 20.8079V24.9087C19.823 25.1176 19.906 25.318 20.0538 25.4658C20.2015 25.6136 20.4019 25.6966 20.6109 25.6966H24.8549C25.0639 25.6966 25.2643 25.6136 25.412 25.4658C25.5598 25.318 25.6428 25.1176 25.6428 24.9087V20.6647C25.6476 20.5574 25.6309 20.4502 25.5937 20.3494C25.5564 20.2487 25.4995 20.1564 25.4261 20.078C25.3526 19.9996 25.2643 19.9366 25.1662 19.8928C25.0681 19.8491 24.9623 19.8253 24.8549 19.8231Z" fill="#FA6624"/>
<path d="M3.15147 3.15165H8.25501V0H1.88007C1.40514 0 0.949665 0.188676 0.613841 0.524499C0.278018 0.860323 0.0893555 1.31578 0.0893555 1.79071V10.5294H3.24101L3.15147 3.15165Z" fill="#6A6E6F"/>
<path d="M3.15164 28.9379V15.1674H0V30.2093C0 30.6843 0.188662 31.1397 0.524486 31.4756C0.860309 31.8114 1.31578 32 1.79071 32H11.9619V28.9379H3.15164Z" fill="#6A6E6F"/>
<path d="M28.8664 3.15154V19.8231H32.0181V1.91595C32.0181 1.44103 31.8294 0.985553 31.4936 0.64973C31.1577 0.313906 30.7023 0.125244 30.2273 0.125244H12.75V3.15154H28.8664Z" fill="#6A6E6F"/>
<path d="M28.8661 28.9378H24.2998V32.0715H30.2271C30.702 32.0715 31.1575 31.8829 31.4933 31.5471C31.8291 31.2112 32.0178 30.7558 32.0178 30.2808V24.4431H28.8661V28.9378Z" fill="#6A6E6F"/>
</g>
<defs>
<clipPath id="clip0_1425_39897">
<rect width="130" height="32" fill="white"/>
</clipPath>
</defs>
</svg>
