<?xml version="1.0" encoding="UTF-8"?><svg id="Layer_2" xmlns="http://www.w3.org/2000/svg" viewBox="0 0 98.15 67.88"><defs><style>.cls-1{fill:#fff;}</style></defs><g id="Layer_1-2"><path class="cls-1" d="M97.78,8.13c-7.27-1.39-14.56-1.1-21.44,1.76-2.22,.92-4.23,2.11-6.11,3.52l.89-2.45c.21-.13,2.82-10.96,.97-10.96-.94,0-15.91,11.74-17.01,23.52-.08,.82,0,1.63,.2,2.41,.1,.38,.3,.85,.42,1.12h0s.03,.06,.03,.06c0,.02,.02,.04,.02,.06,0,0,0,0,0,0l.66,1.43c-1.53,.34-3.05-.15-4.51-.72-1.78-.7-3.28-1.73-5.01-2.6-3.14-1.59-6.34-2.77-9.89-2.34-1.63,.2-3.24,1.05-4.29,2.05-1.05,1-2.6,2.57-3.31,3.49-1.58,2.06-10.21,3.77-11.33,4.09-5.81,1.66-14.45,4.13-17.42,6.39-1.74,1.32,.45,1.13,.85,.98,7.63-2.79,14.44-5.28,23.42-5.51,20.03-.52,28.42,13.37,27.22,19.15-1.8,8.66-9.39,10.22-13.93,10.04-.09,0-.16,.08-.14,.17,.36,1.31,1.64,3.38,2.3,3.99,.13,.12,.33,.13,.47,.02,1.58-1.27,6.03-4.89,8.73-6.5,3.35-1.99,10.57-4.69,16.82-10.67,3.08-2.95,9.76-15.38,12.85-21.35,5.47-10.57,15.64-17.81,18.75-20.35,.28-.23,.11-.73-.22-.79Z"/></g></svg>