<?xml version="1.0" encoding="UTF-8"?><svg id="Layer_2" xmlns="http://www.w3.org/2000/svg" viewBox="0 0 207.15 105.35"><defs><style>.cls-1{fill:#fff;}</style></defs><g id="Layer_1-2"><g><path class="cls-1" d="M0,104.49V57.4H8.57l14.69,26.5,4.82,10.01h.29c-.19-2.4-.42-5.02-.68-7.85-.26-2.83-.4-5.57-.4-8.21v-20.45h7.99v47.09h-8.57l-14.69-26.5-4.82-10.01h-.29c.19,2.5,.42,5.11,.68,7.85,.26,2.74,.4,5.42,.4,8.06v20.59H0Z"/><path class="cls-1" d="M48.17,62.94c-1.49,0-2.69-.43-3.6-1.3-.91-.86-1.37-2.02-1.37-3.46s.46-2.52,1.37-3.38c.91-.86,2.11-1.3,3.6-1.3s2.69,.43,3.6,1.3c.91,.86,1.37,1.99,1.37,3.38s-.46,2.59-1.37,3.46c-.91,.86-2.11,1.3-3.6,1.3Zm-4.18,41.54v-35.35h8.28v35.35h-8.28Z"/><path class="cls-1" d="M61.06,104.49V57.4h8.14v28.01h.22l13.1-16.27h9.07l-12.1,14.4,13.32,20.95h-9l-9.07-15.34-5.54,6.34v9h-8.14Z"/><path class="cls-1" d="M96.84,104.49V57.4h8.14v28.01h.22l13.1-16.27h9.07l-12.1,14.4,13.32,20.95h-9l-9.07-15.34-5.54,6.34v9h-8.14Z"/><path class="cls-1" d="M140.69,105.35c-2.93,0-5-.89-6.23-2.66-1.22-1.78-1.84-4.2-1.84-7.27V57.4h8.28v38.45c0,1.01,.19,1.72,.58,2.12,.38,.41,.79,.61,1.22,.61,.19,0,.37-.02,.54-.04,.82-.08,6.49-1.61,6.97-1.96l1.08,5.7c-.48,.19-4.18,2.59-7.65,2.89-.76,.06-1.99,.17-2.95,.17Z"/><path class="cls-1" d="M206.78,8.13c-7.27-1.39-14.56-1.1-21.44,1.76-2.22,.92-4.23,2.11-6.11,3.52l.89-2.45c.21-.13,2.82-10.96,.97-10.96-.94,0-15.91,11.74-17.01,23.52-.08,.82,0,1.63,.2,2.41,.1,.38,.3,.85,.42,1.12h0s.03,.06,.03,.06c0,.02,.02,.04,.02,.06,0,0,0,0,0,0l.66,1.43c-1.53,.34-3.05-.15-4.51-.72-1.78-.7-3.28-1.73-5.01-2.6-3.14-1.59-6.34-2.77-9.89-2.34-1.63,.2-3.24,1.05-4.29,2.05-1.05,1-2.6,2.57-3.31,3.49-1.58,2.06-10.21,3.77-11.33,4.09-5.81,1.66-14.45,4.13-17.42,6.39-1.74,1.32,.45,1.13,.85,.98,7.63-2.79,14.44-5.28,23.42-5.51,20.03-.52,28.42,13.37,27.22,19.15-1.8,8.66-9.39,10.22-13.93,10.04-.09,0-.16,.08-.14,.17,.36,1.31,1.64,3.38,2.3,3.99,.13,.12,.33,.13,.47,.02,1.58-1.27,6.03-4.89,8.73-6.5,3.35-1.99,10.57-4.69,16.82-10.67,3.08-2.95,9.76-15.38,12.85-21.35,5.47-10.57,15.64-17.81,18.75-20.35,.28-.23,.11-.73-.22-.79Z"/></g></g></svg>