<?xml version="1.0" encoding="utf-8"?>
<!-- Generator: Adobe Illustrator 26.5.0, SVG Export Plug-In . SVG Version: 6.00 Build 0)  -->
<svg version="1.1" id="Layer_1" xmlns="http://www.w3.org/2000/svg" xmlns:xlink="http://www.w3.org/1999/xlink" x="0px" y="0px"
	 viewBox="0 0 234 60" style="enable-background:new 0 0 234 60;" xml:space="preserve">
<style type="text/css">
	.st0{fill:#ffffff;}
	.st1{fill:#ffffff;}
</style>
<path class="st0" d="M222,30.9c-0.5-0.5-1.1-0.7-1.7-0.7s-1.2,0.2-1.7,0.7l-5.4,5.4c-0.6,0.6-1,1.5-1,2.4V44c0,1.3,1.1,2.4,2.4,2.4
	H226c1.3,0,2.4-1.1,2.4-2.4v-5.3c0-0.9-0.4-1.7-1-2.4L222,30.9z"/>
<path class="st1" d="M33,28c0-2.6-0.4-4.9-1.3-6.8c-0.8-1.9-2-3.4-3.6-4.3s-3.4-1.5-5.4-1.5c-1.4,0-2.8,0.3-4,0.8
	c-1.2,0.5-2.3,1.3-3.2,2.4c-0.9,1-1.6,2.4-2.1,4C13,24.2,12.7,26,12.7,28s0.3,3.9,0.8,5.5c0.5,1.6,1.2,3,2.2,4.1
	c0.9,1.1,2,1.9,3.2,2.4s2.5,0.8,4,0.8c1.8,0,3.5-0.5,5.1-1.4c1.5-0.9,2.8-2.3,3.7-4.3C32.5,33.2,33,30.8,33,28 M22.8,9.7
	c3.7,0,6.9,0.7,9.5,2.2s4.7,3.6,6,6.4c1.4,2.8,2,6,2,9.7c0,2.8-0.4,5.3-1.1,7.5c-0.7,2.3-1.9,4.2-3.4,5.9s-3.3,2.9-5.5,3.8
	c-2.2,0.9-4.7,1.3-7.5,1.3s-5.3-0.4-7.5-1.3s-4-2.2-5.5-3.8s-2.6-3.6-3.3-5.9c-0.8-2.3-1.1-4.8-1.1-7.5s0.4-5.2,1.2-7.5
	s1.9-4.2,3.4-5.8s3.3-2.8,5.4-3.7C17.6,10.1,20,9.7,22.8,9.7 M79.5,30.9h12c-0.2-2.3-0.8-4-1.8-5.1c-1.1-1.1-2.5-1.7-4.2-1.7
	s-3,0.6-4.1,1.7C80.3,27,79.7,28.7,79.5,30.9 M92.4,34.7h-13c0,1.5,0.3,2.8,0.9,4c0.6,1.1,1.4,2,2.4,2.6s2.1,0.9,3.2,0.9
	c0.8,0,1.5-0.1,2.2-0.3s1.3-0.5,1.9-0.9s1.2-0.8,1.7-1.3s1.2-1.1,2-1.8c0.3-0.3,0.8-0.4,1.5-0.4s1.2,0.2,1.7,0.6
	c0.4,0.4,0.6,0.9,0.6,1.6c0,0.6-0.2,1.3-0.7,2.1s-1.2,1.6-2.1,2.3s-2.1,1.3-3.6,1.8c-1.4,0.5-3.1,0.7-4.9,0.7
	c-4.3,0-7.6-1.2-9.9-3.6c-2.4-2.4-3.5-5.7-3.5-9.9c0-2,0.3-3.8,0.9-5.5s1.4-3.1,2.6-4.3c1.1-1.2,2.5-2.1,4.1-2.8
	c1.6-0.6,3.4-1,5.4-1c2.6,0,4.8,0.5,6.7,1.6c1.9,1.1,3.2,2.5,4.2,4.2c0.9,1.7,1.4,3.5,1.4,5.3c0,1.7-0.5,2.7-1.4,3.2
	C95.5,34.4,94.2,34.7,92.4,34.7 M108.4,37v5.5c0,1.3-0.3,2.4-0.9,3c-0.6,0.7-1.4,1-2.4,1s-1.7-0.3-2.4-1c-0.6-0.7-0.9-1.7-0.9-3V24
	c0-3,1.1-4.5,3.2-4.5c1.1,0,1.9,0.3,2.4,1s0.8,1.7,0.8,3.1c0.8-1.4,1.6-2.4,2.4-3.1s1.9-1,3.3-1s2.7,0.3,4.1,1c1.3,0.7,2,1.6,2,2.8
	c0,0.8-0.3,1.5-0.8,2c-0.6,0.5-1.2,0.8-1.8,0.8c-0.2,0-0.8-0.1-1.8-0.4c-0.9-0.3-1.8-0.4-2.5-0.4c-1,0-1.8,0.3-2.4,0.8
	s-1.1,1.3-1.4,2.3s-0.6,2.2-0.7,3.6C108.4,33.3,108.4,35,108.4,37 M169.4,33.2c-1,0.4-2.4,0.7-4.2,1.1c-1.9,0.4-3.1,0.7-3.9,0.9
	c-0.7,0.2-1.4,0.6-2,1.1s-1,1.3-1,2.3s0.4,1.9,1.1,2.6c0.8,0.7,1.8,1.1,3,1.1c1.3,0,2.5-0.3,3.6-0.9c1.1-0.6,1.9-1.3,2.4-2.2
	c0.6-1,0.9-2.7,0.9-5L169.4,33.2L169.4,33.2z M169.8,42.8c-1.6,1.2-3.2,2.2-4.7,2.8s-3.2,0.9-5,0.9c-1.7,0-3.2-0.3-4.5-1
	s-2.3-1.6-3-2.7c-0.7-1.1-1-2.4-1-3.7c0-1.8,0.6-3.4,1.7-4.6c1.1-1.3,2.7-2.1,4.7-2.6c0.4-0.1,1.5-0.3,3.1-0.7
	c1.7-0.3,3.1-0.7,4.3-0.9c1.2-0.3,2.5-0.6,3.9-1c-0.1-1.7-0.4-3-1.1-3.9c-0.6-0.8-1.9-1.2-3.9-1.2c-1.7,0-3,0.2-3.8,0.7
	c-0.9,0.5-1.6,1.2-2.2,2.1c-0.6,0.9-1,1.6-1.3,1.9s-0.8,0.4-1.6,0.4c-0.7,0-1.4-0.2-1.9-0.7s-0.8-1.1-0.8-1.8c0-1.2,0.4-2.3,1.2-3.4
	s2.1-2,3.9-2.7c1.7-0.7,3.9-1.1,6.5-1.1c2.9,0,5.2,0.3,6.9,1s2.8,1.8,3.5,3.3s1,3.5,1,5.9v7.6c0,1.2,0.2,2.5,0.6,3.9
	c0.4,1.4,0.6,2.2,0.6,2.6c0,0.7-0.3,1.3-1,1.9c-0.6,0.6-1.4,0.8-2.2,0.8c-0.7,0-1.4-0.3-2-1C171.3,44.9,170.6,44,169.8,42.8
	 M186.8,33c0,1.8,0.3,3.3,0.8,4.6c0.6,1.3,1.3,2.2,2.3,2.9c1,0.6,2,1,3.2,1s2.2-0.3,3.2-0.9c1-0.6,1.7-1.5,2.3-2.8s0.9-2.8,0.9-4.7
	c0-1.8-0.3-3.3-0.9-4.6c-0.6-1.3-1.4-2.2-2.3-2.9c-1-0.7-2.1-1-3.2-1c-1.2,0-2.3,0.3-3.3,1s-1.7,1.7-2.2,3
	C187.1,29.8,186.8,31.3,186.8,33 M199.9,42.7V42c-0.9,1-1.8,1.9-2.6,2.5c-0.9,0.6-1.8,1.1-2.8,1.5c-1,0.3-2.1,0.5-3.3,0.5
	c-1.6,0-3.1-0.3-4.4-1c-1.4-0.7-2.5-1.6-3.5-2.9c-1-1.2-1.7-2.7-2.2-4.4s-0.8-3.5-0.8-5.5c0-4.1,1-7.4,3-9.7s4.7-3.5,8-3.5
	c1.9,0,3.5,0.3,4.8,1s2.6,1.7,3.8,3v-9.8c0-1.4,0.3-2.4,0.8-3.1c0.5-0.7,1.3-1,2.3-1s1.8,0.3,2.3,1c0.5,0.6,0.8,1.6,0.8,2.8v29.2
	c0,1.3-0.3,2.2-0.9,2.8c-0.6,0.6-1.3,0.9-2.3,0.9c-0.9,0-1.7-0.3-2.2-1C200.2,44.9,199.9,44,199.9,42.7 M53.1,9.7
	c-2.2,0-3.9,0.3-5.2,0.8c-1.3,0.6-2.1,1.4-2.7,2.7c-0.5,1.2-0.8,2.9-0.8,4.9v24.3c0,1.3,0.3,2.3,0.9,3c0.6,0.7,1.4,1,2.3,1
	c1,0,1.8-0.3,2.4-1c0.6-0.7,0.9-1.7,0.9-3V24.9h1.6c1.2,0,2.1-0.1,2.8-0.4s1-1,1-2.1c0-1.5-1.3-2.3-3.8-2.3h-1.6v-1.6
	c0-1.3,0.2-2.3,0.5-3c0.3-0.7,1.1-1.1,2.3-1.1c0.4,0,1,0,1.6,0.1s1.1,0.1,1.3,0.1c0.6,0,1-0.2,1.4-0.7c0.4-0.4,0.6-1,0.6-1.6
	C58.9,10.7,57,9.7,53.1,9.7 M69.1,9.7c-2.2,0-3.9,0.3-5.2,0.8c-1.3,0.6-2.1,1.4-2.7,2.7c-0.5,1.2-0.8,2.9-0.8,4.9v24.3
	c0,1.3,0.3,2.3,0.9,3c0.6,0.7,1.4,1,2.3,1c1,0,1.8-0.3,2.4-1s0.9-1.7,0.9-3V24.9h1.6c1.2,0,2.1-0.1,2.8-0.4c0.7-0.3,1-1,1-2.1
	c0-1.5-1.3-2.3-3.8-2.3h-1.6v-1.6c0-1.3,0.2-2.3,0.5-3c0.3-0.7,1.1-1.1,2.3-1.1c0.4,0,1,0,1.6,0.1s1.1,0.1,1.3,0.1
	c0.6,0,1-0.2,1.4-0.7c0.4-0.4,0.6-1,0.6-1.6C74.9,10.7,73,9.7,69.1,9.7 M147.1,25.8c-1-2-2.4-3.6-4.1-4.6c-1.7-1.1-3.6-1.6-5.6-1.6
	c-1.7,0-3.2,0.4-4.6,1.1c-1.3,0.7-2.6,1.9-3.9,3.4v-0.8c0-1.2-0.3-2.1-0.9-2.8c-0.6-0.6-1.4-1-2.3-1c-1,0-1.7,0.3-2.3,0.9
	c-0.6,0.6-0.8,1.6-0.8,2.8V52c0,1.4,0.2,2.5,0.6,3.3s1.2,1.1,2.5,1.1c2.1,0,3.2-1.5,3.2-4.4V33c0,0,0-2.7,1.4-5.1c0,0,0-0.1,0.1-0.1
	c0.1-0.1,0.1-0.2,0.2-0.3l0.6-0.9c1.3-1.4,2.8-2.2,4.6-2.2c1.1,0,2.2,0.3,3.1,1c0.9,0.7,1.7,1.6,2.2,2.9s0.8,2.8,0.8,4.5
	c0,1.8-0.3,3.4-0.9,4.6c-0.6,1.3-1.3,2.2-2.3,2.9c-0.9,0.6-2,1-3.1,1c-0.6,0-1.1-0.1-1.6-0.2c-0.2,0-0.3-0.1-0.5-0.1
	c-1.2,0-2.2,1-2.2,2.2c0,0.7,0.3,1.4,0.9,1.8c0.1,0.1,0.2,0.1,0.2,0.2l0.1,0.1c1.3,0.8,2.9,1.1,4.8,1.1c1.6,0,3-0.3,4.4-0.9
	c1.4-0.6,2.6-1.5,3.6-2.7s1.8-2.6,2.4-4.3c0.6-1.7,0.9-3.6,0.9-5.6C148.6,30.2,148.1,27.8,147.1,25.8"/>
</svg>
